<?xml version="1.0" encoding="iso-8859-1"?>
<!-- Uploaded to: SVG Repo, www.svgrepo.com, Generator: SVG Repo Mixer Tools -->
<svg fill="#880000" height="800px" width="800px" version="1.1" id="Capa_1" xmlns="http://www.w3.org/2000/svg" xmlns:xlink="http://www.w3.org/1999/xlink" 
	 viewBox="0 0 64 64" xml:space="preserve">
<g>
	<path d="M47.962,39.903C50.259,39.453,52,37.427,52,35c0-2.414-1.721-4.434-4-4.899V28h-1c-15.553,0-26-5.171-26-10h-2
		c0,6.585,11.781,11.771,27,11.99V39c0,8.816-11.812,14.035-14,14.926C29.812,53.035,18,47.816,18,39V28h-2v2.101
		c-2.279,0.465-4,2.485-4,4.899c0,2.427,1.741,4.453,4.038,4.903c0.785,10.467,14.996,15.808,15.617,16.036
		C31.767,55.979,31.883,56,32,56s0.233-0.021,0.345-0.062C32.966,55.711,47.177,50.37,47.962,39.903z M50,35
		c0,1.302-0.839,2.402-2,2.816v-5.631C49.161,32.598,50,33.698,50,35z M14,35c0-1.302,0.839-2.402,2-2.816v5.631
		C14.839,37.402,14,36.302,14,35z"/>
	<path d="M63.964,62.735l-13.402-48.88C48.325,5.697,40.854,0,32.395,0c-8.329,0-15.768,5.587-18.09,13.585L0.04,62.721
		C0.013,62.812,0,62.905,0,63v1h2v-0.857l14.226-48.999C18.301,6.993,24.951,2,32.395,2c7.562,0,14.239,5.093,16.238,12.385
		L62,63.135V64h2v-1C64,62.911,63.988,62.821,63.964,62.735z"/>
	<path d="M32,48c-1.207,0-2.354-0.582-3.23-1.639l-1.54,1.277C28.493,49.161,30.187,50,32,50s3.507-0.839,4.77-2.361l-1.54-1.277
		C34.354,47.418,33.207,48,32,48z"/>
	<circle cx="26" cy="33" r="2"/>
	<circle cx="38" cy="33" r="2"/>
	<path d="M52,60H40c-1.103,0-2-0.897-2-2v-2h-2v2c0,2.206,1.794,4,4,4h12c1.103,0,2,0.897,2,2h2C56,61.794,54.206,60,52,60z"/>
	<path d="M26,58c0,1.103-0.897,2-2,2H12c-2.206,0-4,1.794-4,4h2c0-1.103,0.897-2,2-2h12c2.206,0,4-1.794,4-4v-2h-2V58z"/>
	<path d="M36,18c2.757,0,5-2.243,5-5V9c0-0.385-0.22-0.734-0.567-0.901c-0.346-0.167-0.758-0.12-1.058,0.12l-3.923,3.139
		l-2.516-6.709C32.79,4.259,32.417,4,32,4s-0.79,0.259-0.937,0.648l-2.516,6.709l-3.923-3.139c-0.301-0.24-0.713-0.287-1.058-0.12
		C23.22,8.266,23,8.615,23,9v4c0,2.757,2.243,5,5,5H36z M25,13v-1.919l3.375,2.7c0.25,0.2,0.58,0.269,0.89,0.183
		c0.309-0.085,0.558-0.312,0.671-0.612L32,7.848l2.063,5.504c0.113,0.3,0.362,0.527,0.671,0.612c0.309,0.086,0.64,0.017,0.89-0.183
		l3.375-2.7V13c0,1.654-1.346,3-3,3h-8C26.346,16,25,14.654,25,13z"/>
</g>
</svg>
