<?xml version="1.0" encoding="UTF-8"?>
<!DOCTYPE svg PUBLIC "-//W3C//DTD SVG 1.1//EN" "http://www.w3.org/Graphics/SVG/1.1/DTD/svg11.dtd">
<svg xmlns="http://www.w3.org/2000/svg" xml:space="preserve" width="370.484mm" height="372.827mm" version="1.1" style="shape-rendering:geometricPrecision; text-rendering:geometricPrecision; image-rendering:optimizeQuality; fill-rule:evenodd; clip-rule:evenodd"
viewBox="0 0 11183.92 11254.64"
 xmlns:xlink="http://www.w3.org/1999/xlink"
 xmlns:xodm="http://www.corel.com/coreldraw/odm/2003">
 <defs>
  <style type="text/css">
   <![CDATA[
    .fil0 {fill:#currentColor;fill-rule:nonzero}
   ]]>
  </style>
 </defs>
 <g id="Слой_x0020_1">
  <metadata id="CorelCorpID_0Corel-Layer"/>
  <g id="_1773310964784">
   <path class="fil0" d="M2194.6 8018.22c-23.43,0 -44.73,-10.65 -63.19,-31.24 -19.17,-20.59 -28.4,-45.44 -28.4,-74.55 0,-48.98 20.59,-102.23 61.77,-159.74 40.47,-57.51 85.19,-107.91 134.18,-152.64 -330.13,-83.07 -572.94,-231.45 -727,-445.14 -154.77,-213.7 -232.16,-465.74 -232.16,-756.82 0,-193.11 31.24,-391.19 93.71,-594.95 62.48,-203.76 149.09,-399 259.85,-584.3 -102.23,-61.06 -187.43,-137.02 -253.46,-227.9 -66.74,-90.87 -100.1,-184.59 -100.1,-281.85 0,-112.17 48.28,-215.83 145.54,-310.25 117.85,-112.17 271.92,-168.26 461.47,-168.26 158.32,0 320.19,37.63 484.9,112.17 313.8,-274.04 652.45,-495.55 1015.95,-663.1 364.21,-168.26 738.36,-252.04 1122.45,-252.04 195.24,0 373.44,38.34 533.18,114.3 160.45,76.68 247.77,203.05 263.39,380.54 1.42,19.88 2.13,39.76 2.13,60.35 0,178.91 -58.93,355.69 -176.78,530.34 -117.85,175.36 -269.08,318.06 -452.24,429.53 -183.88,112.17 -366.34,167.55 -548.09,167.55 -181.75,0 -307.41,-61.06 -376.99,-183.17 -183.88,144.83 -399.71,257.71 -646.77,340.07 -246.36,83.06 -491.29,124.24 -734.1,124.24 -190.27,0 -364.21,-25.56 -521.82,-77.39 -87.33,177.49 -156.9,360.66 -208.02,549.51 -51.83,188.14 -77.39,370.6 -77.39,546.67 0,255.58 60.35,479.22 180.33,672.33 119.98,192.4 311.67,337.23 575.07,434.49 273.33,-253.46 547.38,-430.94 823.55,-530.34 167.55,-59.64 321.61,-89.45 461.47,-89.45 120.69,0 216.54,22.01 287.53,65.32 70.29,44.02 105.79,98.68 105.79,165.42 0,76.68 -46.86,153.35 -141.28,232.16 -94.43,78.1 -232.87,144.12 -416.04,198.79 -225.77,67.45 -458.63,101.53 -697.18,101.53 -167.55,0 -326.58,-17.04 -475.67,-51.83 -66.74,65.32 -100.1,124.95 -100.1,178.91 0,16.33 6.39,38.34 19.88,66.74 12.78,27.69 19.88,52.54 19.88,74.55 0,26.27 -7.81,47.57 -22.01,64.61 -14.91,16.33 -32.66,24.85 -53.25,24.85zm746.88 -405.39c184.59,0 369.18,-26.98 555.19,-81.64 152.64,-45.44 266.94,-101.52 342.91,-166.84 76.68,-66.03 115.01,-131.34 115.01,-196.66 0,-63.89 -34.08,-117.14 -100.81,-159.03 -67.45,-42.6 -157.61,-63.9 -269.79,-63.9 -113.59,0 -236.41,22.72 -367.76,68.87 -271.92,98.69 -539.57,269.78 -802.96,514.01 163.29,56.8 339.36,85.19 528.21,85.19zm-1204.09 -2462.85c174.65,-280.43 398.29,-542.41 671.62,-785.93 -158.32,-71 -313.09,-106.49 -463.6,-106.49 -181.75,0 -328,53.25 -439.47,160.45 -81.64,81.64 -122.11,168.97 -122.11,261.97 0,90.17 33.37,176.78 101.53,259.85 68.16,83.07 151.93,153.35 252.04,210.15zm2085.86 -272.62c117.85,-93 216.54,-198.79 295.34,-318.06 78.8,-119.27 118.56,-217.25 118.56,-293.22 0,-39.05 -9.23,-68.87 -27.69,-90.87 -19.17,-21.3 -43.31,-31.95 -73.84,-31.95 -40.47,0 -83.07,18.46 -128.5,55.38 -44.73,36.21 -84.49,89.45 -119.27,159.03 -62.48,131.34 -93.72,251.33 -93.72,359.95 0,59.64 9.94,112.89 29.11,159.74zm-1341.83 443.01c235,0 469.28,-36.92 703.57,-111.46 234.29,-73.84 439.47,-178.2 615.54,-312.38 -23.43,-53.25 -35.5,-112.17 -35.5,-177.49 0,-88.75 20.59,-185.3 61.06,-291.08 41.18,-105.08 93.72,-193.82 158.32,-266.24 64.61,-71.7 128.5,-107.91 192.4,-107.91 33.37,0 59.63,12.07 78.8,35.5 19.88,23.43 29.11,57.51 29.11,101.53 0,94.42 -38.34,208.73 -116.43,343.62 -77.39,134.18 -187.43,259.85 -330.13,376.28 26.27,46.86 61.77,85.19 107.91,113.59 45.44,28.4 97.26,46.15 154.06,52.54 23.43,2.84 47.57,4.26 72.42,4.26 154.06,0 308.12,-58.93 462.89,-176.78 154.77,-117.85 281.86,-262.69 381.96,-435.92 99.39,-172.52 149.8,-333.68 149.8,-483.48 0,-352.14 -199.5,-528.21 -597.08,-528.21 -382.67,0 -744.04,80.23 -1084.11,239.26 -339.36,159.74 -653.87,394.03 -944.25,702.86 65.32,37.63 134.89,83.78 208.02,137.73 126.37,96.55 189.56,180.33 189.56,249.2 0,27.69 -9.23,53.96 -28.4,78.09 -18.46,24.14 -39.76,36.21 -63.19,36.21 -20.59,0 -39.05,-9.23 -53.96,-27.69 -15.62,-19.17 -22.72,-42.6 -22.72,-71.71 0,-18.46 4.26,-39.76 13.49,-64.61 8.52,-24.85 13.49,-45.44 13.49,-60.35 0,-45.44 -24.14,-88.04 -73.13,-125.66 -48.28,-38.34 -115.72,-80.94 -201.63,-127.79 -232.87,252.04 -425.27,525.37 -576.49,819.3 161.16,52.54 339.36,78.8 534.6,78.8zm4425.89 2310.92c331.55,-5.68 655.29,-93 970.52,-261.97 315.22,-168.97 597.07,-393.32 844.85,-673.04 247.07,-279.02 442.3,-587.14 584.3,-923.66 141.99,-335.81 212.99,-666.65 212.99,-991.1 0,-252.04 -46.15,-477.8 -138.44,-678.01 -92.29,-199.5 -231.45,-357.11 -418.88,-472.83 -187.43,-115.72 -417.46,-173.94 -690.79,-173.94 -281.15,0 -547.38,49.7 -798.71,149.09 -250.61,98.69 -473.54,237.13 -667.36,414.62 46.86,24.85 97.27,54.67 150.51,89.46 53.96,34.79 100.82,75.25 142.7,120.69 41.89,45.44 62.48,90.88 62.48,134.89 0,28.4 -9.94,54.67 -29.11,79.52 -17.04,22.01 -36.92,33.37 -60.34,33.37 -20.59,0 -39.05,-9.94 -55.38,-28.4 -15.62,-18.46 -23.43,-44.02 -23.43,-75.96 0,-19.17 4.97,-44.02 15.62,-73.84 9.94,-29.82 14.91,-51.12 14.91,-63.19 0,-31.95 -22.72,-63.9 -68.16,-94.43 -46.15,-31.24 -103.65,-65.32 -172.52,-101.52 -259.85,244.22 -457.92,531.05 -594.95,861.18 74.55,9.94 154.06,14.91 237.13,14.91 250.61,0 512.59,-43.31 785.93,-129.21 75.26,-146.96 153.35,-288.96 235,-425.27 81.64,-136.31 184.59,-266.95 308.12,-391.9 123.53,-124.95 247.77,-187.43 374.15,-187.43 58.22,0 106.49,14.91 144.83,44.02 37.63,29.11 56.8,73.13 56.8,132.76 0,88.74 -42.6,181.04 -127.79,276.88 -85.19,95.84 -179.62,178.2 -282.56,247.06 -103.65,69.58 -210.86,132.76 -321.61,189.56 -123.53,228.61 -259.85,480.64 -409.65,755.4 224.35,63.19 392.61,163.29 504.07,300.31 112.18,136.31 167.55,286.82 167.55,450.11 0,132.05 -33.37,257.01 -100.81,376.28 -67.45,119.27 -160.45,215.83 -280.43,289.66 -119.99,73.13 -254.88,110.04 -404.68,110.04 -232.87,0 -469.28,-90.88 -709.25,-272.62 -232.87,276.17 -459.34,468.57 -678.01,578.62 137.02,59.63 271.92,119.27 405.39,179.62 132.76,60.35 260.56,107.2 381.96,140.57 120.69,33.37 254.87,49.7 402.55,49.7l30.53 0zm-1397.2 386.93c-55.38,0 -111.46,-7.1 -166.84,-20.59 -153.35,-40.47 -283.27,-113.59 -388.35,-219.38 -105.78,-106.49 -183.88,-230.03 -235.71,-371.31 -51.12,-141.99 -76.68,-288.25 -76.68,-438.76 0,-230.74 59.64,-447.99 179.62,-652.45 119.98,-204.47 280.43,-380.54 480.64,-527.5 200.21,-146.96 417.46,-253.46 650.32,-320.19 22.01,-171.81 65.32,-338.65 128.5,-501.23 -167.55,-34.79 -303.86,-93.71 -408.23,-177.49 -105.08,-83.78 -157.61,-189.56 -157.61,-317.35 0,-90.16 31.95,-182.46 95.84,-276.88 72.42,-105.07 165.42,-183.88 279.02,-235 113.59,-51.12 237.12,-76.68 369.89,-76.68 174.65,0 342.91,38.34 503.36,116.43 398.29,-344.33 853.37,-533.18 1366.68,-567.97 53.96,-2.84 107.2,-4.26 160.45,-4.26 293.92,0 553.77,48.28 780.95,143.41 226.48,95.84 405.39,245.65 536.73,449.4 130.63,203.76 196.66,461.48 196.66,771.73 0,44.73 -1.42,90.16 -4.26,137.02 -22.72,373.44 -115.01,726.29 -279.01,1059.26 -163.29,332.26 -381.25,624.05 -651.74,875.38 -271.21,250.61 -579.33,445.85 -923.66,585.72 -345.04,139.15 -703.57,208.73 -1076.3,208.73 -151.22,0 -288.95,-17.04 -411.78,-51.12 -123.54,-34.08 -253.46,-82.36 -389.06,-145.54 -136.31,-63.19 -275.47,-124.24 -418.17,-183.88 -130.63,59.63 -259.85,89.45 -389.06,89.45 -78.81,0 -140.57,-12.07 -183.88,-36.21 -44.02,-24.14 -65.32,-53.96 -65.32,-88.74 0,-30.53 17.04,-56.09 51.83,-78.1 34.79,-21.3 83.07,-31.95 145.54,-31.95 53.96,0 117.14,9.94 190.27,29.11 72.42,19.17 143.41,42.6 210.86,70.99 195.95,-120.69 405.39,-341.49 628.32,-661.68 -105.08,-110.75 -182.46,-239.96 -230.74,-386.93 -48.98,-146.96 -73.13,-303.16 -73.13,-467.86 0,-63.9 3.55,-129.21 10.65,-195.95 -213.7,73.84 -417.46,186.72 -612.7,339.36 -194.53,152.64 -352.85,330.13 -474.25,533.18 -121.4,203.76 -181.75,412.49 -181.75,627.61 0,139.86 25.56,274.75 78.1,405.39 51.83,130.63 127.79,243.52 228.61,340.07 100.82,96.55 220.09,164 358.53,203.05 27.69,6.39 53.25,9.94 75.25,9.94 55.38,0 94.43,-24.85 116.44,-74.55 14.91,-31.95 33.37,-55.38 53.96,-70.99 20.59,-14.91 42.6,-22.72 64.61,-22.72 19.17,0 35.5,6.39 48.98,19.88 12.78,12.78 19.88,30.53 19.88,53.25 0,44.02 -19.88,77.39 -59.64,100.81 -39.76,22.72 -90.16,34.08 -152.64,34.08zm-241.39 -678.01c99.39,0 203.76,-30.53 311.67,-91.59 -161.87,-59.63 -286.12,-89.45 -372.02,-89.45 -51.12,0 -91.59,8.52 -121.4,24.85 -29.82,17.04 -44.73,36.21 -44.73,58.22 0,26.27 17.75,48.98 53.96,67.44 35.5,19.17 87.33,29.11 153.35,30.53l19.17 0zm1765.67 -418.17c142.7,0 272.62,-36.92 389.06,-111.46 116.44,-73.84 208.02,-170.39 274.76,-288.95 66.03,-118.56 99.39,-242.1 99.39,-371.31 0,-155.48 -51.12,-296.05 -154.77,-422.43 -102.94,-125.66 -259.84,-217.25 -469.28,-274.05 -291.08,518.27 -553.77,919.4 -788.05,1201.96 215.12,177.49 431.65,266.23 648.9,266.23zm-921.53 -2031.91c145.54,-335.81 354.98,-625.47 628.32,-869.7 -152.64,-73.13 -311.67,-110.04 -478.51,-110.04 -123.54,0 -239.26,24.85 -347.17,73.84 -107.91,48.99 -194.53,113.59 -259.14,193.11 -64.6,80.23 -96.55,163.29 -96.55,250.62 0,116.43 52.54,215.12 158.32,294.63 105.07,79.51 237.12,135.6 394.74,167.55zm1512.22 -268.37c159.74,-78.09 312.38,-178.2 458.63,-301.02 146.25,-122.11 219.38,-243.52 219.38,-362.79 0,-39.76 -7.1,-69.58 -22.72,-89.45 -14.91,-19.17 -35.5,-29.11 -60.35,-29.11 -56.8,0 -122.11,44.73 -195.24,133.47 -73.84,88.74 -137.02,178.91 -189.56,270.5 -52.54,91.58 -122.82,217.25 -210.15,378.41zm-1586.76 823.55c215.12,-53.96 428.11,-80.94 640.38,-80.94 83.07,0 163.29,4.26 239.26,12.07 20.59,-41.18 107.92,-217.96 261.98,-530.34 -285.41,97.26 -555.19,145.54 -808.65,145.54 -73.84,0 -144.83,-4.26 -212.28,-12.07 -56.79,148.38 -97.26,303.15 -120.69,465.73zm224.35 1087.66c186.01,-273.34 399.71,-649.62 641.09,-1129.55 -71,-6.39 -141.99,-9.94 -212.28,-9.94 -219.38,0 -438.75,33.37 -659.55,99.39 -9.94,80.94 -14.2,160.45 -14.2,239.26 0,154.06 19.17,300.31 58.22,438.04 38.34,137.73 100.81,259.14 186.72,362.79z"/>
   <g id="_1210524.svg">
    <g>
     <path class="fil0" d="M5363.1 7.91c-207.56,9.68 -200.52,8.79 -180.29,16.71 27.26,10.55 -98.5,21.11 -168.86,14.07 -81.79,-7.92 -303.42,19.35 -541.75,67.72 -51.89,10.55 -92.35,20.23 -90.59,21.99 1.76,2.64 36.06,-2.64 74.76,-10.55 139.84,-28.14 99.38,-7.04 -56.29,29.9 -87.07,20.23 -166.22,41.34 -175.9,44.86 -35.18,14.95 11.43,9.68 108.18,-13.19 236.58,-53.65 520.65,-95.86 846.05,-124.01 94.1,-7.92 175.9,-17.59 180.29,-21.11 5.28,-3.52 49.25,-9.68 99.38,-13.19 49.25,-3.52 92.35,-9.68 94.98,-14.07 2.64,-4.4 -8.79,-7.04 -24.62,-6.16 -15.83,0.88 -90.59,4.4 -165.34,7.03l0 0z"/>
     <path class="fil0" d="M5741.27 16.71l118.73 16.71 -114.33 -3.52c-109.93,-2.64 -113.45,-2.64 -83.55,10.55 25.51,11.43 72.12,14.95 255.92,15.83 228.66,2.64 315.73,8.79 325.4,23.75 2.64,4.4 57.17,15.83 120.49,24.62 64.2,9.68 135.44,22.87 159.18,29.9 23.75,7.03 65.96,14.95 94.1,18.47 29.03,2.64 59.8,8.8 69.48,13.19 9.68,3.52 55.41,14.07 100.26,21.99 248.89,45.73 761.62,204.04 853.97,264.72 16.71,11.43 60.69,30.78 96.74,43.1 36.06,13.19 81.79,32.54 101.14,43.97 19.35,10.55 80.91,39.58 136.32,64.2 55.41,24.62 147.75,65.96 204.92,93.22 112.57,53.65 116.09,54.53 106.41,38.7 -9.68,-14.95 88.83,41.34 141.6,80.91 24.62,18.47 67.72,44.86 96.74,59.8 29.03,14.07 62.44,35.18 74.76,45.73 12.31,10.55 -16.71,-0.88 -65.96,-26.38 -48.37,-25.51 -95.86,-52.77 -106.42,-62.44 -9.68,-8.8 -22.87,-16.71 -29.03,-16.71 -5.28,0 -22.86,-6.16 -38.69,-13.19 -42.21,-20.23 -16.71,-3.52 156.55,99.38 87.07,51.89 170.62,102.02 184.69,111.69l26.38 16.71 -26.38 -29.9 -26.38 -29.9 26.38 16.71c14.95,8.8 77.39,52.77 138.96,98.5 61.56,44.86 116.97,81.79 121.36,81.79 5.28,0 25.51,11.43 45.73,24.63 102.02,69.48 71.24,38.7 -90.58,-90.59 -70.36,-55.41 -132.8,-101.14 -138.96,-101.14 -6.16,0 -69.48,-39.58 -141.59,-87.07 -71.24,-47.49 -181.17,-115.21 -243.61,-150.39 -62.44,-35.18 -125.77,-73 -140.72,-84.43 -25.51,-18.47 -111.69,-59.8 -386.09,-185.57 -638.5,-291.98 -1413.31,-474.03 -2088.74,-490.74l-153.91 -3.52 118.73 16.71 -0 -0z"/>
     <path class="fil0" d="M5270.75 74.75c-204.92,14.95 -304.3,29.9 -323.64,49.25 -16.71,15.83 -239.22,47.49 -254.17,36.06 -19.35,-15.83 -229.54,19.35 -563.74,94.1 -135.44,30.78 -376.41,124.01 -665.76,257.68 -36.06,16.71 -99.38,43.09 -140.72,59.8 -68.6,26.38 -370.26,171.5 -496.9,238.34 -29.03,14.95 -119.61,69.48 -202.28,120.49 -81.79,51.01 -159.19,96.74 -171.5,101.14 -21.99,7.92 -329.8,235.7 -386.97,285.83l-30.78 28.14 45.73 -27.27c24.62,-14.95 69.48,-48.37 98.5,-74.75 46.61,-42.21 106.42,-81.79 106.42,-72.12 0,5.28 -210.19,175.01 -239.22,192.6 -12.31,8.8 -25.51,21.99 -28.14,30.78 -2.64,8.8 -23.75,29.9 -46.61,46.61 -23.75,16.71 -110.81,100.26 -194.36,183.81 -82.67,84.43 -151.27,151.27 -151.27,147.75 0,-12.31 120.49,-145.11 215.47,-236.58 52.77,-51.01 94.1,-95.86 91.47,-98.5 -14.95,-15.83 -368.5,351.79 -521.53,542.63 -43.97,54.53 -103.78,126.64 -132.8,160.94 -29.03,33.42 -105.54,132.8 -169.74,220.74 -64.2,88.83 -120.49,160.94 -124.88,160.94 -24.63,0 -255.05,398.4 -346.51,598.04 -18.47,41.34 -45.73,91.46 -59.8,112.57 -25.51,36.94 -86.19,160.94 -99.38,203.16 -4.4,14.95 -3.52,18.47 4.4,14.07 17.59,-10.55 14.95,-5.28 -102.02,278.79 -69.48,167.1 -153.91,429.18 -157.43,486.35 -1.76,29.02 -14.95,87.95 -29.9,131.92 -53.65,160.94 -124.01,651.69 -124.01,863.64 0,87.95 16.71,75.63 19.35,-13.19 0.88,-36.94 2.64,-52.77 4.4,-34.3 1.76,17.59 7.04,30.78 12.31,28.14 4.4,-3.52 7.92,49.25 8.8,133.68 1.76,260.32 12.31,246.25 19.35,-23.75 2.64,-142.47 9.68,-297.26 14.95,-342.99 14.07,-132.8 36.06,-257.68 49.25,-277.03 7.04,-9.68 12.31,-29.03 12.31,-43.97 0,-35.18 40.46,-260.32 64.2,-360.58 18.47,-76.52 19.35,-78.27 24.62,-43.97 2.64,19.35 6.16,29.02 7.04,21.11 1.76,-28.14 73.87,-278.79 121.36,-424.78 94.1,-291.98 227.78,-599.8 366.74,-845.17 61.56,-108.17 70.36,-121.36 226.9,-360.58 88.83,-135.44 243.61,-339.47 301.66,-396.64 14.95,-14.95 88.83,-100.26 163.58,-189.08 175.89,-210.19 310.45,-355.3 359.7,-388.73 44.85,-30.78 175.01,-136.32 272.63,-222.5 225.15,-197 794.16,-580.45 906.74,-610.35 17.59,-5.28 102.02,-42.21 187.33,-83.55 85.31,-41.34 182.05,-83.55 214.59,-94.1 82.67,-26.38 186.45,-66.84 212.83,-82.67l21.99 -13.19 -21.99 6.16c-42.21,11.43 -12.31,-3.52 70.36,-35.18 45.73,-17.59 111.69,-43.97 145.11,-57.17 34.3,-14.07 87.07,-30.78 118.73,-36.06 31.66,-6.16 69.48,-17.59 83.55,-25.51 47.49,-26.38 99.38,-43.97 160.07,-53.65 32.54,-5.28 63.32,-13.19 68.6,-17.59 12.31,-9.68 102.9,-36.06 108.18,-30.78 2.64,1.76 -13.19,11.43 -34.3,21.11 -50.13,22.87 -36.06,22.87 43.09,0.88 86.19,-23.75 109.05,-21.11 32.54,4.4 -33.42,11.43 -59.8,20.23 -57.17,21.11 11.43,2.64 156.54,-27.26 272.63,-55.41 144.23,-34.3 261.2,-54.53 270,-45.73 2.64,2.64 -5.28,5.28 -19.35,5.28 -14.07,0 -22.87,2.64 -19.35,5.28 2.64,2.64 25.51,2.64 51.01,-0.88 27.26,-3.52 41.34,-8.8 34.3,-13.19 -13.19,-7.92 13.19,-14.07 92.35,-21.99 29.02,-2.64 67.72,-7.03 86.19,-9.68 28.14,-4.4 31.66,-2.64 27.26,9.68 -5.28,13.19 -1.76,14.07 28.14,9.68 168.86,-25.51 499.54,-30.78 667.52,-9.68 58.04,7.04 184.69,19.35 281.43,26.38 233.06,18.47 309.57,31.66 461.72,83.55 70.36,22.87 167.1,52.77 215.47,65.96 48.37,13.19 153.03,41.34 231.3,63.32 142.47,38.69 178.53,43.97 125.76,15.83 -14.95,-7.04 -27.26,-15.83 -27.26,-18.47 0,-15.83 153.91,44.85 209.31,82.67 13.19,8.79 91.46,43.09 173.25,75.63 82.67,33.42 242.74,105.53 356.19,160.94 113.45,55.41 248.01,117.85 299.02,138.96 123.12,51.89 204.04,99.38 345.63,200.52 72.12,52.77 135.44,90.59 163.58,100.26 44.85,14.07 72.12,36.94 160.07,131.92 12.31,13.19 51.89,47.49 87.95,74.76 58.04,44.85 238.33,210.19 198.76,182.93 -7.92,-6.16 -17.59,-9.68 -19.35,-7.03 -2.64,1.76 28.14,29.9 68.6,61.56 39.58,32.54 103.78,83.55 142.47,114.33 84.43,67.72 132.8,120.49 229.54,248.89 39.58,52.77 109.05,136.32 154.79,184.69 106.42,113.45 260.32,296.38 291.1,347.39 17.59,29.03 -11.43,2.64 -104.66,-92.34 -115.21,-117.85 -143.35,-139.84 -55.41,-43.97 37.82,41.34 208.43,292.86 289.35,426.54 69.48,114.33 74.75,120.49 52.77,61.56 -9.68,-26.38 -46.61,-91.47 -82.67,-145.11 -88.83,-133.68 -114.33,-183.81 -74.76,-148.63 29.9,26.38 101.14,136.32 154.79,238.34 27.26,51.89 62.44,114.33 77.39,138.96 63.32,98.5 206.68,404.56 298.14,634.98 52.77,133.68 147.75,408.07 143.35,413.35 -1.76,0.88 -46.61,-55.41 -99.38,-126.64 -83.55,-112.57 -160.07,-248.01 -146.87,-260.32 7.04,-7.04 -51.89,-144.23 -109.05,-252.41 -93.22,-176.77 -160.07,-311.33 -157.43,-314.85 3.52,-3.52 31.66,43.97 97.62,167.98 27.26,52.77 51.89,93.22 54.52,91.46 1.76,-2.64 -10.55,-38.69 -28.14,-80.91 -17.59,-42.21 -32.54,-85.31 -33.42,-95.86 -0.88,-18.47 -57.17,-118.73 -83.55,-148.63 -7.03,-7.92 -20.23,-14.95 -28.14,-14.95 -17.59,0 -29.9,-17.59 -138.96,-195.25 -46.61,-74.75 -96.74,-144.23 -119.61,-165.34 -21.99,-21.11 -40.46,-44.85 -40.46,-54.53 0,-18.47 -14.95,-39.58 -118.73,-169.74 -80.91,-100.26 -95.86,-123.12 -103.78,-153.91 -7.03,-29.02 -123.12,-149.51 -143.35,-149.51 -7.92,0 -23.75,-7.04 -33.42,-15.83 -10.55,-7.92 -3.52,2.64 14.95,24.62 18.47,21.99 70.36,86.19 114.33,142.47 44.86,57.17 111.69,142.47 149.51,189.09 73.88,92.34 291.98,415.11 320.13,473.15 9.68,19.35 42.21,78.27 72.12,131.92 73,128.4 168.86,326.29 248.01,510.09 35.18,81.79 70.36,158.31 78.27,168.86 7.92,9.68 29.9,55.41 48.37,101.14 38.7,94.98 49.25,110.81 75.63,124.88 14.07,7.03 28.14,32.54 49.25,93.22 15.83,45.73 29.03,92.35 29.03,103.78 0,11.43 9.68,45.73 22.86,76.52 12.31,30.78 29.9,85.31 39.58,120.49 9.68,35.18 21.11,67.72 24.62,73 29.9,38.7 106.42,358.82 81.79,343.87 -5.28,-2.64 -11.43,-17.59 -14.95,-31.66 -3.52,-14.95 -8.8,-24.63 -12.31,-21.99 -4.4,1.76 -15.83,-40.46 -27.26,-94.98 -16.71,-85.31 -65.08,-217.23 -75.64,-206.67 -1.76,2.64 4.4,27.26 13.19,56.28 9.68,28.14 23.75,101.14 31.66,161.82 27.26,214.59 33.42,255.92 40.46,260.32 4.4,2.64 11.43,-8.79 15.83,-24.62l7.92 -29.03 0.88 30.78c1.76,45.73 9.68,69.48 22.87,65.08 14.95,-6.16 22.86,39.58 27.26,154.79 1.76,51.01 6.16,153.91 10.55,228.66 3.52,74.76 4.4,163.58 1.76,197.88l-4.4 61.56 -5.28 -65.96c-4.4,-47.49 -5.28,-36.06 -2.64,41.34 1.76,67.72 -0.88,109.93 -7.03,113.45 -7.92,4.4 -8.8,85.31 -6.16,434.46 0,16.71 -2.64,44.85 -6.16,61.56l-6.16 30.78 -6.16 -26.38c-5.28,-21.11 -7.04,-17.59 -7.92,21.99 0,36.06 1.76,44.86 8.79,35.18 10.55,-15.83 5.28,59.8 -14.95,202.28 -17.59,121.37 -31.66,167.98 -25.51,83.55 2.64,-34.3 7.03,-75.64 8.79,-92.35 4.4,-27.27 3.52,-29.03 -4.4,-9.68 -5.28,12.31 -13.19,69.48 -17.59,127.52 -8.79,106.42 -36.94,262.96 -51.89,281.43 -14.95,20.23 -37.82,102.02 -66.84,247.13 -16.71,81.79 -50.13,206.68 -73.88,277.03 -23.75,70.36 -56.28,168.86 -73,219.87 -20.23,65.08 -77.39,189.08 -195.24,422.15 -91.46,181.17 -168.86,331.56 -172.38,334.2 -3.52,2.64 -24.63,42.21 -47.49,87.95 -23.75,45.73 -38.7,79.15 -33.42,74.75 21.11,-21.11 146.87,-226.9 191.73,-313.97 27.26,-52.77 51.01,-94.98 52.77,-92.34 8.8,8.79 -130.16,306.93 -167.98,358.82 -15.83,21.99 -43.97,73.87 -63.32,115.21 -19.35,41.34 -52.77,95.86 -73.87,122.24 -21.11,26.38 -48.37,63.32 -60.69,81.79 -11.43,19.35 -22.86,29.9 -24.63,24.62 -1.76,-6.16 16.71,-41.34 40.46,-79.15 23.75,-36.94 42.21,-69.48 39.58,-72.12 -5.28,-5.28 -13.19,5.28 -65.08,83.55 -107.29,160.94 -215.47,300.78 -226.02,291.11 -2.64,-3.52 -15.83,5.28 -29.9,18.47 -47.49,45.73 -23.75,3.52 51.01,-89.7 41.34,-51.01 73,-96.74 69.48,-99.38 -3.52,-3.52 -10.55,0 -15.83,7.03 -77.39,102.02 -298.14,398.4 -313.97,422.15l-20.23 30.78 35.18 -33.42c26.38,-24.63 37.82,-30.78 43.1,-22.87 4.4,7.04 -6.16,22.87 -30.78,43.97 -20.23,18.47 -56.29,57.17 -79.15,86.19 -23.75,29.9 -72.12,76.52 -107.3,103.78 -36.06,27.27 -96.74,76.52 -135.44,108.18 -132.8,109.05 -214.59,168.86 -223.39,163.58 -5.28,-3.52 -77.39,46.61 -160.94,111.69 -280.55,217.23 -603.32,437.1 -642.01,437.1 -27.27,0 -183.81,84.43 -291.11,156.55 -97.62,65.96 -163.58,95.86 -357.95,164.46 -45.73,15.83 -129.28,49.25 -184.69,74.76 -55.41,24.62 -166.22,66.84 -245.37,94.1 -124.88,42.21 -152.15,48.37 -205.8,47.49 -73,-1.76 -151.27,11.43 -216.35,35.18 -69.48,25.51 -365.86,77.39 -502.17,87.95 -82.67,6.16 -121.37,13.19 -128.4,21.99 -6.16,7.92 -42.21,14.95 -105.53,20.23 -52.77,5.28 -135.44,13.19 -183.81,17.59 -85.31,7.92 -302.54,18.47 -243.61,12.31 15.83,-2.64 36.94,-11.43 46.61,-21.11 16.71,-16.71 14.95,-16.71 -130.16,-16.71 -81.79,0 -228.66,-6.16 -328.04,-14.07 -99.38,-7.03 -243.61,-16.71 -321.01,-21.11 -321.01,-18.47 -920.81,-176.77 -1204.87,-318.37 -67.72,-33.42 -126.64,-65.08 -131.92,-69.48 -4.4,-5.28 24.62,3.52 65.96,18.47 41.34,14.95 82.67,29.02 92.34,31.66 28.14,7.03 -78.27,-44.86 -165.34,-80.03 -44.85,-18.47 -101.14,-43.97 -126.64,-58.04 -24.62,-13.19 -94.98,-46.61 -156.54,-73 -140.72,-60.68 -276.15,-135.44 -386.09,-212.83 -153.03,-108.18 -182.05,-126.64 -235.7,-153.03 -29.03,-14.95 -67.72,-38.69 -86.19,-52.77 -18.47,-14.95 -56.29,-36.94 -83.55,-49.25 -27.26,-11.43 -72.11,-36.94 -100.26,-55.41 -61.56,-42.21 -241.85,-192.6 -246.25,-205.8 -3.52,-10.55 -2.64,-9.68 100.26,62.44 36.06,25.51 65.96,44.85 65.96,42.21 0,-2.64 -38.7,-35.18 -85.31,-73 -47.49,-37.82 -143.35,-124.88 -213.71,-193.48 -70.36,-68.6 -153.03,-141.59 -183.81,-161.82 -71.24,-48.37 -212.83,-197.88 -242.73,-256.8 -14.07,-29.03 -63.32,-87.95 -131.92,-157.43 -103.78,-106.42 -189.09,-218.99 -186.45,-245.37 2.64,-19.35 -110.81,-191.73 -124.88,-189.97 -6.16,0.88 -34.3,-31.66 -62.44,-73 -51.01,-74.76 -74.76,-118.73 -277.91,-514.49 -59.8,-116.09 -108.18,-206.68 -109.05,-201.4 0,6.16 12.31,36.06 27.26,67.72 14.95,31.66 27.27,71.24 27.27,87.07 0,16.71 16.71,58.93 38.69,101.14 21.11,38.69 38.7,75.63 38.7,81.79 0,20.23 99.38,208.43 156.55,297.26 73.87,113.45 247.13,373.78 326.29,489.86 33.42,48.37 58.92,91.46 56.28,94.98 -2.64,3.52 7.04,21.99 20.23,39.58 35.18,45.73 248.01,271.76 403.68,426.54 73,72.11 112.57,115.21 87.95,95.86 -69.48,-55.41 -359.7,-347.39 -467.88,-471.4 -131.04,-148.63 -226.02,-276.15 -344.75,-460.84 -53.65,-83.55 -97.62,-153.91 -97.62,-155.67 0,-7.04 -139.84,-240.98 -175.9,-294.62 -39.58,-58.92 -96.74,-161.82 -96.74,-172.38 0,-4.4 4.4,-0.88 9.68,7.04 4.4,8.8 12.31,15.83 17.59,15.83 4.4,0 -1.76,-20.23 -14.95,-44.85 -12.31,-24.63 -24.63,-43.1 -26.38,-40.46 -2.64,2.64 0,13.19 5.28,23.75 11.43,21.11 7.04,31.66 -8.79,21.99 -13.19,-8.8 -47.49,-78.27 -74.76,-155.67 -24.63,-70.36 -65.08,-158.31 -65.96,-143.35 0,25.51 25.51,92.34 80.91,211.07 51.01,108.18 138.96,321.89 138.96,337.72 0,1.76 -8.8,-3.52 -19.35,-13.19 -18.47,-16.71 -18.47,-16.71 -12.31,0 3.52,9.68 36.06,62.44 72.12,118.73 97.62,150.39 190.84,310.46 193.48,333.32 0.88,10.55 34.3,72.11 74.76,136.32 39.58,63.32 97.62,157.43 128.4,208.43 61.56,102.9 191.73,270 232.18,300.78 14.95,11.43 44.86,36.06 67.72,55.41 22.87,19.35 36.94,29.02 31.66,21.99 -40.45,-56.29 -70.35,-87.07 -85.31,-89.7 -29.9,-4.4 -173.25,-186.45 -242.73,-310.46l-20.23 -35.18 32.54 35.18c56.29,61.56 157.43,180.29 197,231.3 65.08,84.43 239.22,274.4 250.65,274.4 16.71,0 131.04,121.37 124.01,131.92 -2.64,4.4 -30.78,-13.19 -62.44,-39.58 -30.78,-26.38 -60.69,-48.37 -65.96,-48.37 -5.28,0 -38.69,-28.14 -74.75,-63.32 -65.08,-62.44 -87.07,-70.36 -41.34,-14.07 78.27,95.86 163.58,182.05 179.41,180.29 8.79,-0.88 16.71,-7.04 16.71,-13.19 0,-7.92 13.19,-0.88 33.42,16.71 17.59,16.71 84.43,70.36 146.87,118.73 63.32,49.25 142.47,114.33 175.9,145.99 34.3,30.78 86.19,73 116.09,93.22 61.56,42.21 139.84,107.29 127.52,107.29 -4.4,0 -43.09,-25.51 -85.31,-57.17 -42.21,-31.66 -79.15,-56.29 -80.91,-54.53 -7.03,7.92 85.31,77.39 182.93,138.96 137.2,86.19 225.14,145.99 233.06,158.31 7.92,14.07 -0.88,8.79 -102.9,-59.81 -46.61,-30.78 -93.22,-57.17 -102.9,-59.8 -19.35,-3.52 -76.52,-39.58 -134.56,-85.31 -17.59,-13.19 -35.18,-24.63 -38.69,-24.63 -12.31,0 143.35,118.73 222.5,169.74 43.97,29.03 80.91,57.17 80.91,63.32 0,12.31 69.48,60.68 76.52,53.65 7.03,-6.16 29.02,7.04 240.09,144.23 217.23,141.59 260.32,164.46 496.9,268.24 223.39,98.5 322.77,138.96 488.11,198.76 65.08,23.75 138.96,52.77 162.7,64.2 48.37,23.75 281.43,71.24 304.3,62.44 7.92,-2.64 65.08,5.28 127.52,18.47 62.44,12.31 131.04,24.62 153.03,25.51 21.99,1.76 87.07,10.55 145.11,21.11 58.04,9.68 130.16,20.23 160.94,23.75 29.9,3.52 57.17,9.68 59.8,13.19 6.16,10.55 -11.43,9.68 -132.8,-5.28 -111.69,-14.07 -132.8,-15.83 -126.64,-9.68 7.92,7.92 204.91,32.54 359.7,44.86 197.88,15.83 193.48,15.83 175.9,3.52 -14.07,-9.68 56.29,-6.16 184.69,9.68 36.06,4.4 89.71,7.92 119.61,8.8 41.34,0 53.65,2.64 53.65,13.19 0,10.55 -15.83,13.19 -86.19,13.19 -55.41,0 -93.22,4.4 -109.05,12.31 -12.31,7.04 -19.35,14.07 -14.95,17.59 14.95,8.8 306.06,16.71 393.12,9.68 83.55,-7.03 85.31,-7.92 43.97,-14.07 -23.75,-3.52 -71.24,-8.79 -104.66,-11.43 -32.54,-2.64 -61.56,-6.16 -63.32,-7.92 -2.64,-1.76 35.18,-6.16 81.79,-8.79 213.71,-14.07 244.49,-14.95 226.91,-7.04 -9.68,4.4 -36.94,8.8 -60.69,8.8 -23.75,0.88 -40.45,3.52 -36.94,7.03 8.79,8.8 347.39,2.64 369.38,-7.03 11.43,-4.4 -24.63,-6.16 -91.46,-3.52 -138.08,6.16 -116.09,-8.79 27.26,-17.59 55.41,-3.52 104.66,-8.79 109.05,-12.31 5.28,-2.64 54.52,-9.68 109.93,-15.83 55.41,-5.28 148.63,-17.59 205.8,-27.26 64.2,-10.55 113.45,-14.07 127.52,-10.55 12.31,4.4 19.35,7.92 14.07,7.92 -68.6,6.16 -204.04,36.06 -162.7,36.06 8.8,0 8.8,2.64 -0.88,14.95 -11.43,13.19 -9.68,14.07 9.68,8.79 12.31,-2.64 42.21,-7.92 65.96,-11.43 24.63,-2.64 48.37,-9.68 54.53,-14.07 6.16,-4.4 35.18,-10.55 65.96,-12.31 145.11,-8.8 728.2,-148.63 715.01,-171.5 -7.92,-12.31 37.82,-28.14 85.31,-29.9 29.02,-0.88 64.2,-13.19 123.12,-42.21 44.86,-22.87 72.12,-38.7 59.8,-35.18 -12.31,3.52 -33.42,7.04 -48.37,7.04 -14.07,0.88 -34.3,5.28 -43.97,10.55 -9.68,4.4 -47.49,17.59 -83.55,29.02 -36.06,10.55 -114.33,38.7 -174.14,62.44 -111.69,44.85 -315.73,104.66 -356.19,104.66 -12.31,0 -64.2,9.68 -116.09,21.99 -51.89,12.31 -96.74,21.11 -98.5,18.47 -1.76,-1.76 17.59,-7.92 43.09,-14.07 34.3,-8.79 42.21,-13.19 29.9,-17.59 -21.99,-7.03 43.97,-26.38 215.47,-61.56 78.27,-16.71 215.47,-56.29 359.7,-104.66 128.4,-43.09 247.13,-81.79 263.84,-84.43 47.49,-9.68 234.82,-81.79 299.02,-114.33 31.66,-16.71 104.66,-52.77 162.7,-80.03 120.49,-57.17 227.78,-117.85 373.78,-211.07 85.31,-54.53 178.53,-123.13 143.35,-104.66 -29.9,14.95 -4.4,-7.92 69.48,-63.32 98.5,-72.12 118.73,-84.43 124.88,-73.87 7.04,10.55 -83.55,91.46 -132.8,121.36 -21.11,12.31 -37.82,23.75 -37.82,25.51 0,6.16 43.1,-13.19 76.52,-34.3 64.2,-40.46 80.03,-43.97 43.09,-10.55 -56.28,50.13 -189.97,128.4 -215.47,125.76 -16.71,-1.76 -52.77,17.59 -124.88,65.96 -57.17,36.94 -145.99,89.7 -197.88,116.97 -101.14,51.01 -121.37,65.08 -99.38,65.08 7.92,0 58.04,-23.75 111.69,-52.77 54.53,-29.02 102.9,-52.77 107.3,-52.77 11.43,0 182.05,-95.86 290.23,-162.7 131.04,-81.79 251.53,-174.14 286.71,-219.87 97.62,-127.52 136.32,-168.86 221.63,-239.22 114.33,-94.1 286.71,-248.01 428.3,-384.33 58.04,-55.41 106.42,-99.38 108.18,-97.62 7.92,7.92 -408.07,408.07 -481.07,462.6 -57.17,43.1 -137.2,120.49 -131.04,126.64 3.52,3.52 22.86,-7.92 43.09,-25.51 20.23,-17.59 54.53,-39.58 75.63,-50.13 21.11,-9.68 37.82,-21.99 37.82,-26.38 0,-9.68 37.82,-47.49 193.48,-192.6 65.08,-60.69 109.05,-97.62 98.5,-81.79 -11.43,15.83 -54.53,59.8 -95.86,98.5 -42.21,39.58 -73.87,71.24 -69.48,71.24 17.59,0 158.31,-136.32 245.37,-237.46 52.77,-61.56 116.97,-132.8 143.35,-158.31 25.51,-26.38 62.44,-68.6 80.91,-92.35 33.42,-43.09 242.74,-287.59 343.87,-400.16 88.83,-100.26 172.38,-211.95 244.49,-329.8 136.32,-221.63 231.3,-394.88 306.06,-558.46 27.26,-60.69 67.72,-147.75 89.7,-193.49 96.74,-204.04 175.9,-426.54 204.92,-580.45 58.04,-309.57 80.91,-415.99 101.14,-477.55 12.31,-37.82 21.99,-74.76 21.99,-83.55 0,-8.79 7.04,-21.99 16.71,-29.9 9.68,-7.92 18.47,-31.66 21.99,-56.29 3.52,-23.75 10.55,-54.52 15.83,-67.72 7.04,-19.35 7.04,-27.26 -0.88,-31.66 -14.07,-9.68 10.55,-185.57 28.14,-198.76 21.99,-15.83 36.06,-168.86 37.82,-413.35 0.88,-125.76 4.4,-320.12 7.92,-430.94 5.28,-167.1 4.4,-215.47 -7.04,-277.03 -7.92,-41.34 -16.71,-104.66 -19.35,-140.71 -2.64,-36.06 -12.31,-94.1 -21.11,-127.52l-16.71 -61.56 -0.88 58.04c-0.88,31.66 4.4,74.76 11.43,96.74 14.07,43.09 26.38,195.24 14.95,176.77 -7.92,-13.19 -5.28,186.45 4.4,437.98 7.92,185.57 4.4,474.91 -5.28,508.33 -4.4,13.19 -7.92,17.59 -8.8,10.55 -0.88,-7.04 -7.04,2.64 -13.19,21.99 -10.55,34.3 -11.43,31.66 -17.59,-68.6 -3.52,-56.28 -2.64,-198.76 2.64,-316.61 9.68,-223.39 1.76,-582.21 -14.07,-621.79 -10.55,-28.14 -30.78,-176.77 -29.9,-226.02 0,-41.34 8.8,-74.76 17.59,-69.48 22.87,14.07 -2.64,-269.12 -29.02,-320.13 -6.16,-12.31 -14.07,-47.49 -17.59,-79.15 -3.52,-31.66 -15.83,-102.02 -27.27,-157.42 -11.43,-55.41 -19.35,-102.02 -17.59,-103.78 0.88,-1.76 14.07,30.78 27.27,72.12 14.07,42.21 28.14,77.39 31.66,80.03 7.03,4.4 -28.14,-132.8 -44.86,-176.77 -5.28,-14.95 -15.83,-54.53 -22.86,-87.95 -7.92,-41.34 -30.78,-99.38 -69.48,-175.9 -56.29,-112.57 -69.48,-129.28 -43.97,-57.17 14.07,39.58 10.55,61.56 -3.52,25.51 -4.4,-11.43 -27.26,-65.08 -51.89,-117.85 -23.75,-53.65 -58.04,-135.44 -75.63,-182.93 -17.59,-48.37 -40.46,-106.41 -49.25,-130.16 -9.68,-23.75 -13.19,-43.1 -8.8,-43.1 9.68,0 43.09,72.12 50.13,108.18 2.64,14.95 9.68,22.86 15.83,20.23 10.55,-3.52 66.84,107.29 123.12,242.73 13.19,33.42 26.38,59.8 29.03,59.8 3.52,0 0.88,-11.43 -12.31,-65.96 -3.52,-13.19 -0.88,-12.31 8.8,4.4 7.92,12.31 13.19,18.47 14.07,14.95 0,-13.19 -73,-177.66 -87.95,-197 -7.92,-10.55 -28.14,-49.25 -43.97,-86.19 -23.75,-55.41 -27.27,-68.6 -16.71,-74.75 9.68,-6.16 6.16,-14.95 -16.71,-45.73 -14.95,-21.11 -35.18,-51.89 -43.09,-68.6 -153.91,-307.81 -378.17,-693.9 -418.63,-718.53 -10.55,-7.03 -6.16,0.88 47.49,80.91 21.99,33.42 50.13,79.15 60.68,101.14 10.55,21.99 32.54,57.17 48.37,79.15 27.26,36.94 109.05,181.17 121.36,213.71 11.43,29.9 -1.76,13.19 -38.69,-49.25 -20.23,-34.3 -85.31,-134.56 -142.47,-221.63 -182.05,-272.64 -190.85,-287.59 -190.85,-299.9 0,-32.54 -136.32,-212.83 -321.01,-425.66 -78.27,-89.7 -153.03,-178.53 -167.1,-197.88 -14.07,-19.35 -51.89,-66.84 -83.55,-105.53 -31.66,-38.7 -63.32,-78.27 -70.35,-87.95 -28.14,-36.94 21.99,7.03 127.52,113.45 109.93,110.81 255.92,290.23 360.58,443.25 34.3,49.25 65.96,89.7 70.36,89.7 11.43,0 60.69,64.2 101.14,130.16 14.95,24.63 30.78,43.97 34.3,41.34 3.52,-1.76 29.02,30.78 56.28,73 27.27,42.21 58.04,81.79 68.6,87.95 14.95,9.68 9.68,-5.28 -27.26,-74.76 -41.34,-75.63 -82.67,-147.75 -124.01,-211.95 -12.31,-20.23 -31.66,-28.14 -20.23,-8.79 16.71,30.78 -31.66,-27.27 -113.45,-137.2 -51.01,-66.84 -101.14,-139.84 -111.7,-162.7 -38.69,-78.27 -129.28,-174.14 -333.32,-356.19l-30.78 -27.27 29.02 34.3c15.83,18.47 26.38,35.18 24.63,37.82 -5.28,5.28 -102.02,-97.62 -120.49,-127.52 -8.8,-13.19 -45.73,-52.77 -84.43,-87.07 -65.96,-60.69 -86.19,-93.22 -33.42,-54.53 29.03,21.11 -17.59,-24.63 -168.86,-164.46 -57.17,-52.77 -110.81,-100.26 -117.85,-103.78 -7.03,-3.52 5.28,10.55 29.03,31.66 22.86,21.11 41.34,42.21 41.34,46.61 0,4.4 10.55,19.35 24.63,33.42l23.75 26.38 -21.99 -10.55c-12.31,-6.16 3.52,12.31 35.18,40.46 93.22,82.67 163.58,154.79 147.75,148.63 -8.79,-2.64 -15.83,-1.76 -15.83,0.88 0,3.52 7.04,14.07 15.83,23.75 36.06,41.34 -47.49,-27.26 -150.39,-124 -58.92,-55.41 -130.16,-116.97 -159.18,-136.32 -28.14,-19.35 -81.79,-59.8 -118.73,-89.7 -162.7,-129.28 -261.2,-201.4 -315.73,-230.42 -32.54,-17.59 -71.24,-43.1 -86.19,-56.29 -29.9,-25.51 -163.58,-109.93 -214.59,-135.44l-30.78 -15.83 26.38 23.75c23.75,21.11 24.63,21.99 4.4,12.31 -57.17,-27.27 -146.87,-82.67 -159.19,-98.5 -48.37,-59.8 -354.42,-204.92 -605.95,-285.83 -617.39,-199.64 -1034.26,-298.14 -1327.12,-313.97 -99.38,-5.28 -169.74,-18.47 -145.11,-28.14 6.16,-1.76 57.17,2.64 114.33,10.55 122.25,15.83 151.27,16.71 138.96,4.4 -7.03,-7.04 -202.28,-32.54 -377.29,-48.37 -182.05,-16.71 -633.22,-31.66 -729.96,-25.51l-0.01 0zm1753.66 342.12c65.96,14.07 88.83,21.99 57.17,21.99 -28.14,0 -134.56,-24.62 -150.39,-35.18 -13.19,-7.92 -12.31,-7.92 6.16,-4.4 12.31,2.64 51.01,10.55 87.07,17.59zm2565.41 1773.89l25.51 29.03 -28.14 -25.51c-15.83,-14.95 -29.03,-27.26 -29.03,-29.02 0,-7.04 7.04,-0.88 31.66,25.51zm729.08 802.96c79.15,120.49 163.58,288.47 207.56,409.83 18.47,51.01 52.77,140.72 76.51,197.88 53.65,128.4 100.26,259.44 94.98,265.6 -2.64,2.64 -8.8,-5.28 -13.19,-16.71 -59.8,-157.42 -150.39,-369.38 -212.83,-499.54 -43.09,-88.83 -76.52,-163.58 -74.76,-166.22 2.64,-1.76 18.47,24.63 35.18,58.93 33.42,65.96 50.13,84.43 27.26,29.9 -22.86,-54.53 -154.79,-277.91 -180.29,-306.06 -22.86,-24.63 -52.77,-74.76 -52.77,-88.83 0,-15.83 36.06,28.14 92.34,115.21l0 0zm469.64 1141.55c0.88,4.4 -2.64,4.4 -7.92,1.76 -4.4,-2.64 -8.8,-14.07 -7.92,-24.63 0,-18.47 0.88,-18.47 7.92,-1.76 4.4,9.68 7.92,21.11 7.92,24.63zm154.79 943.67c9.68,79.15 -9.68,58.93 -24.62,-25.51 -20.23,-111.69 -18.47,-151.27 2.64,-77.39 8.8,31.66 18.47,77.39 21.99,102.9l0 0zm29.9 213.71c0,30.78 -1.76,54.52 -4.4,51.89 -2.64,-2.64 -10.55,-43.97 -17.59,-91.47 -10.55,-71.24 -10.55,-90.58 -1.76,-108.17 10.55,-20.23 11.43,-17.59 16.71,35.18 3.52,30.78 6.16,81.79 7.04,112.57l0 0zm53.65 619.14c-5.28,87.95 -15.83,207.56 -22.87,265.6 -7.04,58.04 -16.71,154.79 -21.11,215.47 -5.28,59.8 -11.43,111.69 -14.95,114.33 -7.92,7.04 7.04,-434.46 14.95,-444.13 6.16,-8.79 17.59,-80.91 35.18,-237.46 4.4,-43.97 8.8,-83.55 9.68,-87.95 0,-5.28 2.64,-3.52 5.28,2.64 2.64,7.03 0,83.55 -6.16,171.5l0 0zm-125.77 685.11c-2.64,7.04 -5.28,4.4 -5.28,-5.28 -0.88,-9.68 1.76,-14.95 4.4,-11.43 2.64,2.64 3.52,10.55 0.88,16.71zm-8.79 48.37c-2.64,8.8 -4.4,3.52 -4.4,-10.55 0,-14.95 1.76,-21.11 4.4,-15.83 1.76,6.16 1.76,18.47 0,26.38zm-55.41 184.69c-3.52,23.75 -7.04,67.72 -7.92,99.38 -0.88,41.34 -10.55,85.31 -35.18,156.55 -18.47,54.53 -35.18,96.74 -37.82,94.1 -2.64,-2.64 -9.68,0 -16.71,5.28 -15.83,14.07 -15.83,13.19 29.03,-163.58 36.06,-142.47 64.2,-233.06 73,-233.06 1.76,0 0,18.47 -4.4,41.34l0 0zm61.56 531.2c-35.18,136.32 -56.29,192.6 -214.59,565.5 -33.42,78.27 -44.85,79.15 -17.59,0.88 9.68,-28.14 17.59,-57.17 16.71,-65.08 -0.88,-21.11 -48.37,87.95 -70.36,159.19 -25.51,85.31 -50.13,139.84 -108.18,237.46 -27.26,45.73 -49.25,87.95 -49.25,93.22 0,6.16 -14.07,32.54 -30.78,58.93 -16.71,26.38 -40.46,68.6 -53.65,94.1 -28.14,55.41 -112.57,183.81 -170.62,257.68 -21.99,29.02 -51.89,75.63 -65.08,103.78 -13.19,28.14 -33.42,56.29 -43.97,64.2 -11.43,7.03 -47.49,46.61 -80.03,87.95 -32.54,41.34 -61.56,73 -63.32,70.36 -5.28,-5.28 50.13,-82.67 76.51,-106.42 28.14,-25.51 79.15,-97.62 83.55,-116.09 0.88,-9.68 30.78,-59.8 65.08,-112.57 58.04,-88.83 69.48,-109.93 58.04,-109.93 -1.76,0 -36.06,49.25 -75.63,109.93 -38.7,60.69 -74.76,109.93 -78.27,109.93 -10.55,0 -181.17,248.01 -204.92,297.26 -38.69,80.03 -134.56,191.73 -189.97,221.63 -52.77,27.26 -21.11,-18.47 95.86,-140.72 58.93,-61.56 228.66,-301.66 228.66,-323.64 0,-6.16 21.11,-35.18 46.61,-65.08 142.47,-169.74 355.3,-489.86 344.75,-519.77 -6.16,-14.07 48.37,-109.05 61.56,-109.05 8.79,0.88 126.64,-218.99 144.23,-270 7.92,-21.99 7.92,-23.75 -3.52,-14.07 -7.92,7.04 0,-20.23 18.47,-62.44 58.04,-134.56 116.09,-284.07 134.56,-346.51 11.43,-38.7 24.62,-65.96 36.06,-73 9.68,-6.16 17.59,-7.03 17.59,-3.52 0,24.63 -22.87,124.01 -44.86,196.12 -14.07,46.61 -25.51,87.95 -25.51,92.35 1.76,27.26 101.14,-239.22 154.79,-412.47 17.59,-57.17 33.42,-102.02 36.06,-100.26 1.76,2.64 -11.43,60.69 -29.02,130.16l0 0zm-205.8 65.08c-51.01,153.03 -131.92,338.6 -147.75,338.6 -7.92,0 -72.12,145.11 -72.12,161.82 0,4.4 7.92,0.88 17.59,-7.92 9.68,-8.79 17.59,-13.19 17.59,-8.79 0,17.59 -76.52,148.63 -88.83,151.27 -21.11,6.16 -65.96,90.59 -48.37,90.59 7.03,0 19.35,-8.8 26.38,-19.35 29.9,-43.09 10.55,5.28 -51.89,130.16 -36.06,71.24 -72.12,136.32 -79.15,143.35 -18.47,18.47 -27.26,4.4 -15.83,-25.51 5.28,-14.95 8.8,-26.38 7.04,-26.38 -1.76,0 -23.75,35.18 -49.25,79.15 -24.62,43.09 -46.61,79.15 -48.37,79.15 -1.76,0 21.99,-48.37 52.77,-108.18 31.66,-58.92 65.08,-127.52 73.87,-151.27 9.68,-24.63 39.58,-83.55 65.96,-131.92 26.38,-48.37 54.53,-100.26 61.56,-114.33 21.99,-42.21 151.27,-363.22 173.25,-430.94 42.21,-127.52 128.4,-303.42 149.51,-303.42 4.4,0 -15.83,69.48 -43.97,153.91l0.01 0zm-805.59 1448.49c-21.99,43.09 -113.45,173.25 -149.51,213.71 -16.71,19.35 -28.14,29.02 -24.62,21.99 8.79,-18.47 181.17,-263.84 185.57,-263.84 1.76,0 -3.52,13.19 -11.43,28.14zm-82.67 233.06c-21.11,28.14 -68.6,80.91 -104.66,116.97 -36.94,36.06 -138.96,145.11 -226.9,242.73 -162.7,180.29 -299.9,313.97 -394,384.33 -29.02,21.99 -84.43,68.6 -123.12,104.66 -38.7,36.06 -94.1,79.15 -123.13,94.98 -29.02,16.71 -89.7,57.17 -135.44,89.7 -174.14,126.64 -385.21,251.53 -647.29,382.57 -81.79,40.46 -168.86,87.07 -193.49,101.14 -41.34,25.51 -123.12,53.65 -184.69,64.2 -21.11,3.52 -17.59,0 17.59,-17.59 24.62,-11.43 64.2,-29.9 87.95,-40.45 24.62,-11.43 38.69,-21.11 31.66,-23.75 -8.8,-2.64 -6.16,-7.04 8.8,-15.83 14.07,-7.92 16.71,-11.43 7.03,-12.31 -7.03,0 -32.54,12.31 -57.17,27.26 -23.75,15.83 -78.27,44.86 -122.25,65.96 -43.1,21.11 -92.35,47.49 -109.05,58.04 -66.84,42.21 -278.79,131.04 -401.92,167.98 -258.56,76.52 -291.98,85.31 -334.2,85.31 -23.75,0 -109.05,14.07 -189.96,29.9 -233.94,48.37 -336.84,65.08 -486.35,80.03 -132.8,13.19 -561.98,26.38 -514.49,15.83 12.31,-1.76 26.38,-7.92 30.78,-11.43 14.07,-11.43 299.02,-27.26 322.76,-18.47 25.51,9.68 359.7,-35.18 415.99,-56.28 42.21,-14.95 167.1,-30.78 197.88,-24.63 25.51,4.4 197,-33.42 378.17,-82.67 128.4,-36.06 138.08,-50.13 13.19,-21.11 -104.66,25.51 -107.3,22.87 -26.38,-15.83 73,-35.18 321.89,-107.29 357.95,-104.66 21.11,1.76 186.45,-53.65 180.29,-60.68 -1.76,-1.76 -14.07,0.88 -27.27,6.16 -13.19,4.4 -21.99,5.28 -19.35,0.88 2.64,-4.4 42.21,-21.99 86.19,-40.46 79.15,-31.66 523.28,-227.78 622.66,-275.27 26.38,-12.31 61.56,-36.94 79.15,-54.53 16.71,-17.59 82.67,-62.44 145.11,-100.26 64.2,-37.82 145.99,-95.87 187.33,-132.8 39.58,-35.18 98.5,-80.91 129.28,-101.14 31.66,-20.23 57.17,-41.34 57.17,-45.73 0,-10.55 -4.4,-7.92 -109.93,69.48 -48.37,36.06 -97.62,66.84 -109.93,70.36 -12.31,2.64 -43.97,20.23 -70.36,39.58l-48.37 34.3 39.58 -36.94c21.99,-20.23 56.28,-44.86 77.39,-53.65 21.11,-9.68 39.58,-21.99 42.21,-28.14 2.64,-6.16 36.94,-34.3 76.52,-62.44 39.58,-28.14 101.14,-74.76 135.44,-102.9 72.12,-57.17 88.83,-65.08 50.13,-22.86 -20.23,23.75 -21.11,25.51 -2.64,8.79 26.38,-22.86 38.7,-24.62 30.78,-5.28 -6.16,16.71 -0.88,13.19 84.43,-51.01 36.94,-28.14 70.36,-51.01 73,-51.01 3.52,0 32.54,-20.23 65.08,-45.73 68.6,-53.65 87.07,-65.08 49.25,-30.78 -40.45,37.82 -218.99,169.74 -391.36,291.11 -83.55,58.92 -144.23,110.81 -129.28,110.81 2.64,0 43.97,-27.26 90.58,-61.56 46.61,-33.42 87.95,-61.56 92.35,-61.56 3.52,0 21.99,-13.19 40.46,-29.03 29.9,-25.51 31.66,-26.38 14.07,-4.4 -9.68,13.19 -42.21,44.85 -72.12,69.48 -87.95,75.63 -63.32,65.96 49.25,-16.71 160.07,-119.61 424.79,-361.46 752.83,-691.26 143.35,-145.11 263.84,-260.32 267.36,-257.68 2.64,3.52 -12.31,28.14 -32.54,56.29l-0.01 0zm-1407.15 1079.99c0,1.76 -8.8,7.92 -19.35,13.19 -19.35,9.68 -19.35,8.79 -3.52,-3.52 18.47,-14.95 22.87,-16.71 22.87,-9.68zm-5178.32 333.32c101.14,36.94 130.16,50.13 130.16,59.8 0,9.68 -8.8,8.8 -56.29,-7.03 -22.87,-7.92 -43.09,-12.31 -45.73,-10.55 -1.76,2.64 38.69,16.71 91.46,32.54 51.89,15.83 124.01,42.21 160.07,58.04 36.06,15.83 110.81,43.09 164.46,60.68 94.1,31.66 128.4,49.25 93.22,49.25 -36.94,0 14.07,24.62 88.83,42.21 43.97,10.55 86.19,26.38 96.74,36.06 29.9,27.26 488.11,152.15 554.07,150.39 16.71,-0.88 -23.75,-26.38 -42.21,-26.38 -8.79,0 -14.95,-2.64 -12.31,-5.28 2.64,-2.64 50.13,3.52 104.66,13.19 61.56,10.55 163.58,19.35 262.96,22.86 145.99,4.4 248.89,13.19 332.44,27.27 16.71,2.64 28.14,0.88 28.14,-5.28 0,-4.4 -8.8,-8.79 -19.35,-8.79 -11.43,0 -26.38,-4.4 -33.42,-8.8 -21.11,-14.07 22.87,-10.55 92.35,6.16l61.56 14.95 -39.58 7.03c-55.41,7.92 -139.84,8.8 -171.5,0 -14.95,-3.52 -40.46,-4.4 -57.17,-1.76 -23.75,3.52 -7.92,7.92 65.96,16.71 53.65,7.03 112.57,14.95 131.92,18.47l35.18 7.03 -39.58 0.88c-95.86,2.64 -488.11,-36.94 -746.67,-74.76 -182.05,-26.38 -554.07,-118.73 -586.61,-145.11 -6.16,-4.4 -73,-29.9 -149.51,-55.41 -281.43,-94.98 -343.87,-118.73 -349.15,-131.04 -2.64,-6.16 -58.04,-36.06 -124.01,-67.72 -65.96,-30.78 -117.85,-57.17 -116.09,-58.93 1.76,-1.76 12.31,0 23.75,4.4 11.43,4.4 36.94,10.55 56.29,14.07 31.66,5.28 28.14,1.76 -28.14,-24.63 -35.18,-16.71 -64.2,-32.54 -64.2,-35.18 0,-10.55 28.14,-4.4 107.29,24.63l0 0zm3416.74 617.39c-2.64,2.64 -10.55,3.52 -16.71,0.88 -7.03,-2.64 -4.4,-5.28 5.28,-5.28 9.68,-0.88 14.95,1.76 11.43,4.4zm-1750.14 8.79c-2.64,2.64 -10.55,3.52 -16.71,0.88 -7.04,-2.64 -4.4,-5.28 5.28,-5.28 9.68,-0.88 14.95,1.76 11.43,4.4z"/>
     <path class="fil0" d="M10631.13 7888.85c-6.16,9.68 -8.8,20.23 -6.16,21.99 1.76,1.76 7.92,-6.16 13.19,-18.47 12.31,-26.38 6.16,-29.02 -7.04,-3.52l0 0z"/>
     <path class="fil0" d="M10295.17 8593.3c-14.95,13.19 -27.27,42.21 -17.59,42.21 3.52,0 14.07,-12.31 21.99,-26.38 17.59,-29.03 16.71,-31.66 -4.4,-15.83l0 0z"/>
     <path class="fil0" d="M9388.43 9514.99c-20.23,19.35 -32.54,35.18 -28.14,35.18 5.28,0 25.51,-15.83 43.97,-35.18 44.86,-45.73 32.54,-45.73 -15.83,0z"/>
     <path class="fil0" d="M8592.51 10155.24c-39.58,26.38 -41.34,43.97 -2.64,24.63 25.51,-13.19 60.69,-49.25 48.37,-49.25 -4.4,0 -24.62,11.43 -45.73,24.62l-0 0z"/>
     <path class="fil0" d="M8428.05 10245.82c-23.75,14.07 -50.13,29.9 -57.17,34.3 -47.49,29.9 -227.78,136.32 -291.98,171.5 -42.21,23.75 -75.63,43.97 -73.87,45.73 0.88,1.76 40.46,-14.95 87.07,-36.94 46.61,-21.99 87.07,-39.58 90.58,-39.58 13.19,0 230.42,-123.13 241.85,-138.08 7.04,-7.92 28.14,-25.51 46.61,-39.58 47.49,-34.3 14.95,-32.54 -43.09,2.64l0 0z"/>
     <path class="fil0" d="M3359.66 10627.51c3.52,4.4 23.75,14.95 43.97,23.75 21.11,9.68 34.3,13.19 29.02,7.92 -4.4,-4.4 -24.63,-14.95 -43.97,-23.75 -19.35,-7.92 -32.54,-11.43 -29.02,-7.92z"/>
     <path class="fil0" d="M4349.95 137.19c6.16,2.64 14.07,1.76 16.71,-0.88 3.52,-2.64 -1.76,-5.28 -11.43,-4.4 -9.68,0 -12.31,2.64 -5.28,5.28z"/>
     <path class="fil0" d="M4728.12 145.99c5.28,1.76 15.83,1.76 21.99,0 5.28,-2.64 0.88,-4.4 -11.43,-4.4 -12.31,0 -16.71,1.76 -10.55,4.4z"/>
     <path class="fil0" d="M6463.31 152.15c9.68,7.92 60.69,13.19 56.29,5.28 -2.64,-5.28 -17.59,-8.8 -32.54,-8.8 -14.95,0 -25.51,1.76 -23.75,3.52z"/>
     <path class="fil0" d="M3920.76 245.37c-223.39,69.48 -472.28,160.07 -550.55,200.52l-34.3 18.47 40.46 -3.52c22.87,-1.76 94.1,-22.86 158.31,-46.61 167.1,-62.44 427.42,-151.27 441.49,-151.27 24.63,0 102.9,-37.82 102.9,-49.25 0,-17.59 -5.28,-15.83 -158.31,31.66l0 0z"/>
     <path class="fil0" d="M5943.55 332.44c-10.55,7.03 -10.55,12.31 -0.88,29.9 10.55,19.35 20.23,22.86 101.14,31.66 163.58,18.47 230.42,21.11 248.01,11.43 15.83,-9.68 14.95,-9.68 -5.28,-10.55 -12.31,0 -28.14,-4.4 -35.18,-9.68 -9.68,-7.03 7.92,-7.92 61.56,-3.52 43.97,2.64 80.03,10.55 87.95,17.59 8.79,7.92 48.37,13.19 131.92,16.71 65.08,2.64 132.8,7.03 149.51,9.68 21.11,3.52 26.38,2.64 17.59,-2.64 -15.83,-9.68 -215.47,-48.37 -378.17,-73 -138.96,-20.23 -358.82,-30.78 -378.17,-17.59z"/>
     <path class="fil0" d="M6471.23 442.37c0,7.03 145.99,49.25 169.74,49.25 12.31,0 48.37,7.92 80.03,17.59 32.54,10.55 90.59,21.99 129.28,26.38 72.12,7.92 175.9,34.3 234.82,58.92 17.59,7.04 76.52,26.38 129.28,42.21 53.65,15.83 112.57,36.06 131.92,45.73 43.97,21.99 127.52,50.13 132.8,43.97 2.64,-1.76 -20.23,-13.19 -50.13,-23.75 -29.02,-11.43 -66.84,-29.9 -83.55,-41.34 -30.78,-20.23 -194.36,-73.87 -331.56,-108.18 -39.58,-10.55 -125.76,-33.42 -190.85,-52.77 -65.08,-18.47 -140.71,-37.82 -167.1,-42.21 -58.04,-11.43 -184.69,-21.99 -184.69,-15.83l0 0z"/>
     <path class="fil0" d="M6998.91 484.58c4.4,4.4 179.41,57.17 251.53,76.52 22.87,6.16 38.7,15.83 40.46,25.51 3.52,12.31 19.35,19.35 60.69,27.27 102.02,21.11 247.13,73 416.87,150.39 192.6,87.07 314.85,153.91 369.38,201.4 14.95,12.31 89.71,56.28 166.22,97.62 75.63,41.34 203.16,117.85 283.19,170.62 80.03,51.89 147.75,92.34 151.27,88.83 3.52,-2.64 -0.88,-9.68 -9.68,-14.07 -7.92,-5.28 -47.49,-33.42 -87.07,-64.2 -40.45,-29.9 -108.17,-75.63 -152.15,-101.14 -43.1,-25.51 -94.98,-59.8 -114.33,-75.63 -71.24,-58.05 -425.66,-250.65 -460.85,-250.65 -7.92,0 -61.56,-23.75 -119.61,-52.77 -93.22,-46.61 -458.2,-186.45 -650.81,-249.77 -65.08,-21.99 -155.67,-40.45 -145.11,-29.9l0 -0z"/>
     <path class="fil0" d="M3036.9 614.75c-7.04,11.43 4.4,11.43 21.99,0 11.43,-7.03 11.43,-8.79 -1.76,-8.79 -7.92,0 -17.59,3.52 -20.23,8.79l0 0z"/>
     <path class="fil0" d="M2944.55 667.51c-17.59,9.68 -24.62,16.71 -16.71,17.59 7.92,0 23.75,-7.92 35.18,-17.59 26.38,-21.11 21.11,-21.11 -18.47,0z"/>
     <path class="fil0" d="M7377.08 662.24c0,5.28 108.18,40.45 111.69,36.94 2.64,-1.76 -18.47,-11.43 -45.73,-21.99 -48.37,-18.47 -65.96,-21.99 -65.96,-14.95l-0 0z"/>
     <path class="fil0" d="M2806.48 720.28c-74.75,38.69 -93.22,52.77 -71.24,52.77 14.07,0 156.55,-76.52 156.55,-84.43 0,-8.79 -21.11,-0.88 -85.31,31.66z"/>
     <path class="fil0" d="M7550.34 704.45c20.23,10.55 37.82,24.62 40.45,32.54 1.76,7.92 19.35,21.99 39.58,31.66 19.35,9.68 33.42,20.23 31.66,23.75 -2.64,3.52 38.69,26.38 90.58,51.89 284.07,134.56 540,280.55 668.4,379.05 20.23,15.83 65.08,48.37 100.26,73 35.18,23.75 138.96,102.02 231.3,174.14 92.35,71.24 221.63,167.1 286.71,212.83 137.2,95.86 309.57,232.18 435.34,343.87 52.77,46.61 80.91,67.72 71.24,51.89 -9.68,-14.95 -21.99,-36.06 -28.14,-46.61 -6.16,-11.43 -33.42,-41.34 -60.68,-65.08 -32.54,-29.03 -47.49,-49.25 -43.97,-58.04 7.03,-18.47 -151.27,-173.26 -294.62,-286.71 -191.73,-152.15 -384.33,-277.91 -693.9,-452.93 -69.48,-39.58 -142.47,-82.67 -162.7,-96.74 -45.73,-31.66 -197,-117.85 -301.66,-172.38 -86.19,-44.85 -103.78,-60.68 -34.3,-30.78 67.72,29.02 58.92,19.35 -21.11,-21.99 -46.61,-24.63 -87.07,-38.7 -107.29,-38.7 -17.59,-0.88 -51.01,-8.79 -74.76,-19.35 -22.86,-9.68 -51.89,-21.99 -63.32,-26.38 -36.06,-14.07 -14.07,-17.59 24.63,-3.52 43.97,14.95 39.58,0.88 -6.16,-18.47 -39.58,-16.71 -152.15,-56.29 -159.19,-55.41 -2.64,0 11.43,8.79 31.66,18.47l0 0z"/>
     <path class="fil0" d="M8370.89 1031.61c0,2.64 7.92,8.79 17.59,14.07 9.68,5.28 17.59,7.03 17.59,5.28 0,-2.64 -7.92,-8.79 -17.59,-14.07 -9.68,-5.28 -17.59,-7.03 -17.59,-5.28z"/>
     <path class="fil0" d="M8977.72 1229.5c38.7,31.66 175.9,124.88 175.9,120.49 0,-7.92 -139.84,-109.93 -170.62,-124.88l-27.27 -13.19 21.99 17.59 0 -0z"/>
     <path class="fil0" d="M1957.79 1311.29c-39.58,32.54 -54.53,59.8 -33.42,59.8 17.59,0 80.91,-66.84 78.27,-80.91 -2.64,-11.43 -12.31,-7.04 -44.85,21.11l0 0z"/>
     <path class="fil0" d="M1868.96 1410.67c-33.42,22.87 -46.61,47.49 -16.71,31.66 14.95,-7.92 60.68,-53.65 53.65,-53.65 -1.76,0 -18.47,9.68 -36.94,21.99l0 0z"/>
     <path class="fil0" d="M1683.39 1565.45c-56.29,53.65 -102.02,102.02 -102.02,106.42 0,10.55 139.84,-119.61 182.93,-168.86 15.83,-19.35 27.27,-35.18 24.63,-35.18 -1.76,0 -50.13,43.97 -105.53,97.62l-0 0z"/>
     <path class="fil0" d="M9725.27 2258.47c0,4.4 6.16,13.19 14.95,19.35 13.19,11.43 13.19,10.55 3.52,-7.92 -10.55,-20.23 -18.47,-24.63 -18.47,-11.43z"/>
     <path class="fil0" d="M10466.66 2885.54c21.99,40.45 56.29,106.41 76.52,146.87 19.35,39.58 37.82,71.24 40.45,68.6 10.55,-10.55 -131.92,-287.59 -148.63,-287.59 -4.4,0 9.68,32.54 31.66,72.11l-0 0z"/>
     <path class="fil0" d="M10840.44 5003.3c-1.76,26.38 -0.88,55.41 3.52,63.32 3.52,7.92 7.04,43.97 7.04,79.15 0,35.18 4.4,70.36 9.68,77.39 11.43,15.83 3.52,-199.64 -7.92,-241.85 -7.04,-24.62 -7.92,-22.86 -12.31,21.99l0 0z"/>
     <path class="fil0" d="M158.39 5100.04c0,12.31 1.76,16.71 4.4,10.55 1.76,-5.28 1.76,-15.83 0,-21.99 -2.64,-5.28 -4.4,-0.88 -4.4,11.43z"/>
     <path class="fil0" d="M0.09 5724.47c-1.76,89.7 23.75,554.06 32.54,598.04 4.4,21.99 16.71,57.17 26.38,79.15l17.59 39.58 0 -43.97c0.88,-51.01 -18.47,-173.25 -33.42,-209.31 -5.28,-14.07 -9.68,-65.08 -9.68,-114.33 0,-49.25 -4.4,-115.21 -9.68,-146.87 -5.28,-31.66 -12.31,-102.9 -15.83,-158.3 -5.28,-73.88 -7.03,-86.19 -7.92,-43.97l0 0z"/>
     <path class="fil0" d="M42.3 6548.53c0,19.35 43.09,262.08 57.17,325.4 15.83,69.48 33.42,87.95 26.38,26.38l-4.4 -36.94 14.07 30.78c7.92,16.71 27.27,84.43 43.97,149.51 28.14,115.21 58.93,202.28 72.12,202.28 4.4,0 14.07,21.99 23.75,48.37 8.8,26.38 18.47,48.37 21.99,48.37 7.04,0 -57.17,-207.56 -81.79,-265.6 -15.83,-36.94 -51.89,-196.12 -72.12,-314.85 -19.35,-112.57 -30.78,-149.51 -44.85,-143.36 -7.04,2.64 -9.68,14.95 -7.04,36.06 1.76,17.59 -4.4,2.64 -14.95,-33.42 -16.71,-59.8 -34.3,-98.5 -34.3,-73l0 0z"/>
     <path class="fil0" d="M324.61 7092.92c-1.76,20.23 36.94,150.39 51.89,175.02 8.79,14.07 32.54,68.6 52.77,120.49 20.23,51.89 40.46,97.62 45.73,100.26 6.16,4.4 7.92,1.76 5.28,-6.16 -2.64,-7.04 -36.06,-93.22 -74.76,-192.6 -38.7,-99.38 -73,-186.45 -75.63,-193.48 -2.64,-7.03 -5.28,-8.8 -5.28,-3.52l0 -0.01z"/>
     <path class="fil0" d="M174.22 7198.46c0,17.59 87.07,265.6 133.68,380.81 45.73,115.21 138.08,303.42 144.23,297.26 2.64,-1.76 -9.68,-34.3 -26.38,-71.24 -17.59,-37.82 -28.14,-73.87 -25.51,-81.79 3.52,-8.8 1.76,-12.31 -3.52,-8.8 -5.28,3.52 -17.59,-12.31 -28.14,-37.82 -36.94,-85.31 -72.12,-188.21 -68.6,-201.4 0.88,-7.92 9.68,3.52 17.59,25.51l14.95 39.58 -3.52 -36.94c-5.28,-52.77 -33.42,-124.01 -40.45,-103.78 -3.52,10.55 -17.59,-18.47 -40.46,-88.83 -23.75,-72.12 -38.7,-104.66 -47.49,-104.66 -7.04,0 -15.83,-4.4 -19.35,-8.79 -4.4,-5.28 -7.03,-5.28 -7.03,0.88z"/>
     <path class="fil0" d="M412.56 7420.09c-1.76,40.45 159.18,451.17 171.5,438.85 2.64,-2.64 -10.55,-38.7 -28.14,-81.79 -51.89,-124.01 -109.05,-278.79 -109.05,-293.74 0,-7.04 -7.92,-29.03 -16.71,-48.37 -14.07,-28.14 -17.59,-30.78 -17.59,-14.95z"/>
     <path class="fil0" d="M342.2 7577.51c-0.88,14.07 44.85,126.64 49.25,122.25 1.76,-1.76 -8.8,-32.54 -22.87,-67.72 -14.95,-36.06 -26.38,-59.8 -26.38,-54.53l-0 0z"/>
     <path class="fil0" d="M9943.38 8655.74c-75.63,114.33 -93.22,146.87 -82.67,146.87 7.03,0 126.64,-182.93 149.51,-226.9 32.54,-63.32 6.16,-30.78 -66.84,80.03z"/>
     <path class="fil0" d="M9737.58 9390.98c-71.24,69.48 -161.82,172.38 -161.82,183.81 0.88,3.52 38.7,-33.42 84.43,-81.79 82.67,-86.19 157.42,-171.5 151.27,-171.5 -0.88,0 -34.3,31.66 -73.87,69.48l-0 0z"/>
     <path class="fil0" d="M9300.48 9433.19c-51.01,41.34 -63.32,63.32 -16.71,29.9 14.95,-10.55 31.66,-18.47 38.69,-18.47 12.31,0 51.01,-35.18 51.01,-46.61 0,-14.95 -25.51,-1.76 -73,35.18l0 0z"/>
     <path class="fil0" d="M1726.49 9718.14c73.87,74.76 294.62,262.96 307.81,262.96 12.31,0 -19.35,-30.78 -118.73,-113.45 -55.41,-46.61 -134.56,-116.97 -176.77,-157.42 -42.21,-39.58 -79.15,-72.12 -83.55,-72.12 -4.4,0 28.14,36.06 71.24,80.03l0 -0z"/>
     <path class="fil0" d="M9180 9928.34c-16.71,14.95 -26.38,26.38 -21.11,26.38 5.28,0 20.23,-12.31 34.3,-26.38 31.66,-33.42 26.38,-33.42 -13.19,0l0 0z"/>
     <path class="fil0" d="M1999.12 9928.34c2.64,4.4 9.68,8.8 14.07,8.8 5.28,0 6.16,-4.4 3.52,-8.8 -2.64,-5.28 -9.68,-8.8 -14.07,-8.8 -5.28,0 -6.16,3.52 -3.52,8.8z"/>
     <path class="fil0" d="M1994.73 9975.83c0,1.76 7.04,8.8 15.83,14.95 13.19,11.43 14.07,10.55 2.64,-3.52 -11.43,-14.07 -18.47,-18.47 -18.47,-11.43z"/>
     <path class="fil0" d="M8508.96 10380.38c-51.89,36.06 -64.2,48.37 -25.51,26.38 29.02,-16.71 80.03,-55.41 72.12,-55.41 -2.64,0 -23.75,13.19 -46.61,29.03z"/>
     <path class="fil0" d="M7904.77 10728.65c-26.38,14.07 -43.97,25.51 -39.58,25.51 5.28,0 30.78,-11.43 57.17,-25.51 26.38,-14.07 44.86,-25.51 39.58,-25.51 -4.4,0 -30.78,11.43 -57.17,25.51z"/>
     <path class="fil0" d="M4883.78 11204.45c9.68,3.52 61.56,6.16 114.33,6.16 67.72,0 87.95,-1.76 66.84,-7.04 -38.7,-9.68 -204.92,-8.79 -181.17,0.88z"/>
    </g>
   </g>
  </g>
 </g>
</svg>
